<svg id="图层_1" data-name="图层 1" xmlns="http://www.w3.org/2000/svg" viewBox="0 0 294 67"><defs><style>.cls-1{fill:#0b6d00;}.cls-2{fill:#ff8b00;}.cls-3{fill:#841600;}</style></defs><title>aa</title><path class="cls-1" d="M147,66.61a.53.53,0,0,1-.53-.53V16a.53.53,0,0,1,.53-.53.53.53,0,0,1,.53.53v50.1A.53.53,0,0,1,147,66.61Z"/><line class="cls-1" x1="147.01" y1="57.31" x2="154.52" y2="49.8"/><path class="cls-1" d="M147,57.84a.54.54,0,0,1-.38-.15.53.53,0,0,1,0-.75l7.52-7.52a.53.53,0,0,1,.75,0,.54.54,0,0,1,0,.75l-7.52,7.52A.53.53,0,0,1,147,57.84Z"/><circle class="cls-2" cx="154.52" cy="49.8" r="2.51"/><path class="cls-2" d="M154.52,52.83a3,3,0,1,1,3-3A3,3,0,0,1,154.52,52.83Zm0-5a2,2,0,1,0,2,2A2,2,0,0,0,154.52,47.82Z"/><line class="cls-1" x1="147.01" y1="29.76" x2="154.52" y2="22.24"/><path class="cls-1" d="M147,30.29a.55.55,0,0,1-.38-.16.53.53,0,0,1,0-.75l7.52-7.51a.53.53,0,0,1,.75,0,.54.54,0,0,1,0,.75l-7.52,7.51A.54.54,0,0,1,147,30.29Z"/><circle class="cls-2" cx="154.52" cy="22.24" r="2.51"/><path class="cls-2" d="M154.52,25.28a3,3,0,1,1,3-3A3,3,0,0,1,154.52,25.28Zm0-5a2,2,0,1,0,2,2A2,2,0,0,0,154.52,20.27Z"/><circle class="cls-2" cx="147.01" cy="15.98" r="2.51"/><path class="cls-2" d="M147,19a3,3,0,1,1,3-3A3,3,0,0,1,147,19Zm0-5a2,2,0,1,0,2,2A2,2,0,0,0,147,14Z"/><line class="cls-1" x1="147.01" y1="43.53" x2="154.52" y2="36.02"/><path class="cls-1" d="M147,44.06a.54.54,0,0,1-.38-.15.53.53,0,0,1,0-.75l7.52-7.52a.53.53,0,0,1,.75.75l-7.52,7.52A.53.53,0,0,1,147,44.06Z"/><circle class="cls-2" cx="154.52" cy="36.02" r="2.51"/><path class="cls-2" d="M154.52,39.05a3,3,0,1,1,3-3A3,3,0,0,1,154.52,39.05Zm0-5a2,2,0,1,0,2,2A2,2,0,0,0,154.52,34Z"/><line class="cls-1" x1="147.01" y1="51.05" x2="139.49" y2="43.53"/><path class="cls-1" d="M147,51.58a.51.51,0,0,1-.38-.16l-7.51-7.51a.53.53,0,0,1,0-.75.51.51,0,0,1,.74,0l7.52,7.51a.53.53,0,0,1,0,.75A.5.5,0,0,1,147,51.58Z"/><circle class="cls-2" cx="139.49" cy="43.53" r="2.51"/><path class="cls-2" d="M139.49,46.57a3,3,0,1,1,3-3A3,3,0,0,1,139.49,46.57Zm0-5a2,2,0,1,0,2,2A2,2,0,0,0,139.49,41.56Z"/><line class="cls-1" x1="147.01" y1="37.27" x2="139.49" y2="29.76"/><path class="cls-1" d="M147,37.8a.54.54,0,0,1-.38-.15l-7.51-7.52a.53.53,0,0,1,0-.75.51.51,0,0,1,.74,0l7.52,7.52a.53.53,0,0,1,0,.75A.53.53,0,0,1,147,37.8Z"/><circle class="cls-2" cx="139.49" cy="29.76" r="2.51"/><path class="cls-2" d="M139.49,32.79a3,3,0,1,1,3-3A3,3,0,0,1,139.49,32.79Zm0-5a2,2,0,1,0,2,2A2,2,0,0,0,139.49,27.78Z"/><path class="cls-1" d="M215.54,66.61a.53.53,0,0,1-.53-.53V16a.53.53,0,0,1,1.06,0v50.1A.53.53,0,0,1,215.54,66.61Z"/><line class="cls-1" x1="215.54" y1="57.31" x2="223.05" y2="49.8"/><path class="cls-1" d="M215.54,57.84a.55.55,0,0,1-.38-.15.54.54,0,0,1,0-.75l7.52-7.52a.53.53,0,0,1,.75.75l-7.52,7.52A.51.51,0,0,1,215.54,57.84Z"/><circle class="cls-2" cx="223.05" cy="49.8" r="2.51"/><path class="cls-2" d="M223.05,52.83a3,3,0,1,1,3-3A3,3,0,0,1,223.05,52.83Zm0-5a2,2,0,1,0,2,2A2,2,0,0,0,223.05,47.82Z"/><line class="cls-1" x1="215.54" y1="29.76" x2="223.05" y2="22.24"/><path class="cls-1" d="M215.54,30.29a.57.57,0,0,1-.38-.16.54.54,0,0,1,0-.75l7.52-7.51a.53.53,0,0,1,.75.75l-7.52,7.51A.52.52,0,0,1,215.54,30.29Z"/><circle class="cls-2" cx="223.05" cy="22.24" r="2.51"/><path class="cls-2" d="M223.05,25.28a3,3,0,1,1,3-3A3,3,0,0,1,223.05,25.28Zm0-5a2,2,0,1,0,2,2A2,2,0,0,0,223.05,20.27Z"/><circle class="cls-2" cx="215.54" cy="15.98" r="2.51"/><path class="cls-2" d="M215.54,19a3,3,0,1,1,3-3A3,3,0,0,1,215.54,19Zm0-5a2,2,0,1,0,2,2A2,2,0,0,0,215.54,14Z"/><line class="cls-1" x1="215.54" y1="43.53" x2="223.05" y2="36.02"/><path class="cls-1" d="M215.54,44.06a.55.55,0,0,1-.38-.15.54.54,0,0,1,0-.75l7.52-7.52a.54.54,0,0,1,.75,0,.53.53,0,0,1,0,.75l-7.52,7.52A.51.51,0,0,1,215.54,44.06Z"/><circle class="cls-2" cx="223.05" cy="36.02" r="2.51"/><path class="cls-2" d="M223.05,39.05a3,3,0,1,1,3-3A3,3,0,0,1,223.05,39.05Zm0-5a2,2,0,1,0,2,2A2,2,0,0,0,223.05,34Z"/><line class="cls-1" x1="215.54" y1="51.05" x2="208.02" y2="43.53"/><path class="cls-1" d="M215.54,51.58a.52.52,0,0,1-.38-.16l-7.51-7.51a.53.53,0,0,1,.75-.75l7.51,7.51a.53.53,0,0,1,0,.75A.49.49,0,0,1,215.54,51.58Z"/><circle class="cls-2" cx="208.02" cy="43.53" r="2.51"/><path class="cls-2" d="M208,46.57a3,3,0,1,1,3-3A3,3,0,0,1,208,46.57Zm0-5a2,2,0,1,0,2,2A2,2,0,0,0,208,41.56Z"/><line class="cls-1" x1="215.54" y1="37.27" x2="208.02" y2="29.76"/><path class="cls-1" d="M215.54,37.8a.55.55,0,0,1-.38-.15l-7.51-7.52a.53.53,0,0,1,.75-.75l7.51,7.52a.53.53,0,0,1,0,.75A.51.51,0,0,1,215.54,37.8Z"/><circle class="cls-2" cx="208.02" cy="29.76" r="2.51"/><path class="cls-2" d="M208,32.79a3,3,0,1,1,3-3A3,3,0,0,1,208,32.79Zm0-5a2,2,0,1,0,2,2A2,2,0,0,0,208,27.78Z"/><path class="cls-1" d="M283.18,66.61a.53.53,0,0,1-.53-.53V16a.53.53,0,0,1,.53-.53.53.53,0,0,1,.53.53v50.1A.53.53,0,0,1,283.18,66.61Z"/><line class="cls-1" x1="283.18" y1="57.31" x2="290.69" y2="49.8"/><path class="cls-1" d="M283.18,57.84a.55.55,0,0,1-.38-.15.53.53,0,0,1,0-.75l7.52-7.52a.53.53,0,0,1,.75,0,.54.54,0,0,1,0,.75l-7.52,7.52A.53.53,0,0,1,283.18,57.84Z"/><circle class="cls-2" cx="290.69" cy="49.8" r="2.51"/><path class="cls-2" d="M290.69,52.83a3,3,0,1,1,3-3A3,3,0,0,1,290.69,52.83Zm0-5a2,2,0,1,0,2,2A2,2,0,0,0,290.69,47.82Z"/><line class="cls-1" x1="283.18" y1="29.76" x2="290.69" y2="22.24"/><path class="cls-1" d="M283.18,30.29a.57.57,0,0,1-.38-.16.53.53,0,0,1,0-.75l7.52-7.51a.53.53,0,0,1,.75,0,.54.54,0,0,1,0,.75l-7.52,7.51A.54.54,0,0,1,283.18,30.29Z"/><circle class="cls-2" cx="290.69" cy="22.24" r="2.51"/><path class="cls-2" d="M290.69,25.28a3,3,0,1,1,3-3A3,3,0,0,1,290.69,25.28Zm0-5a2,2,0,1,0,2,2A2,2,0,0,0,290.69,20.27Z"/><circle class="cls-2" cx="283.18" cy="15.98" r="2.51"/><path class="cls-2" d="M283.18,19a3,3,0,1,1,3-3A3,3,0,0,1,283.18,19Zm0-5a2,2,0,1,0,2,2A2,2,0,0,0,283.18,14Z"/><line class="cls-1" x1="283.18" y1="43.53" x2="290.69" y2="36.02"/><path class="cls-1" d="M283.18,44.06a.55.55,0,0,1-.38-.15.53.53,0,0,1,0-.75l7.52-7.52a.53.53,0,0,1,.75.75l-7.52,7.52A.53.53,0,0,1,283.18,44.06Z"/><circle class="cls-2" cx="290.69" cy="36.02" r="2.51"/><path class="cls-2" d="M290.69,39.05a3,3,0,1,1,3-3A3,3,0,0,1,290.69,39.05Zm0-5a2,2,0,1,0,2,2A2,2,0,0,0,290.69,34Z"/><line class="cls-1" x1="283.18" y1="51.05" x2="275.66" y2="43.53"/><path class="cls-1" d="M283.18,51.58a.52.52,0,0,1-.38-.16l-7.51-7.51a.53.53,0,0,1,.75-.75l7.51,7.51a.53.53,0,0,1,0,.75A.5.5,0,0,1,283.18,51.58Z"/><circle class="cls-2" cx="275.66" cy="43.53" r="2.51"/><path class="cls-2" d="M275.66,46.57a3,3,0,1,1,3-3A3,3,0,0,1,275.66,46.57Zm0-5a2,2,0,1,0,2,2A2,2,0,0,0,275.66,41.56Z"/><line class="cls-1" x1="283.18" y1="37.27" x2="275.66" y2="29.76"/><path class="cls-1" d="M283.18,37.8a.55.55,0,0,1-.38-.15l-7.51-7.52a.53.53,0,0,1,.75-.75l7.51,7.52a.53.53,0,0,1,0,.75A.53.53,0,0,1,283.18,37.8Z"/><circle class="cls-2" cx="275.66" cy="29.76" r="2.51"/><path class="cls-2" d="M275.66,32.79a3,3,0,1,1,3-3A3,3,0,0,1,275.66,32.79Zm0-5a2,2,0,1,0,2,2A2,2,0,0,0,275.66,27.78Z"/><path class="cls-1" d="M76.51,66.61a.53.53,0,0,1-.53-.53V16a.53.53,0,0,1,.53-.53A.53.53,0,0,1,77,16v50.1A.53.53,0,0,1,76.51,66.61Z"/><line class="cls-1" x1="76.51" y1="57.31" x2="84.02" y2="49.8"/><path class="cls-1" d="M76.51,57.84a.55.55,0,0,1-.38-.15.54.54,0,0,1,0-.75l7.52-7.52a.53.53,0,0,1,.75,0,.54.54,0,0,1,0,.75l-7.52,7.52A.53.53,0,0,1,76.51,57.84Z"/><circle class="cls-2" cx="84.02" cy="49.8" r="2.51"/><path class="cls-2" d="M84,52.83a3,3,0,1,1,3-3A3,3,0,0,1,84,52.83Zm0-5a2,2,0,1,0,2,2A2,2,0,0,0,84,47.82Z"/><line class="cls-1" x1="76.51" y1="29.76" x2="84.02" y2="22.24"/><path class="cls-1" d="M76.51,30.29a.57.57,0,0,1-.38-.16.54.54,0,0,1,0-.75l7.52-7.51a.53.53,0,0,1,.75,0,.54.54,0,0,1,0,.75l-7.52,7.51A.54.54,0,0,1,76.51,30.29Z"/><circle class="cls-2" cx="84.02" cy="22.24" r="2.51"/><path class="cls-2" d="M84,25.28a3,3,0,1,1,3-3A3,3,0,0,1,84,25.28Zm0-5a2,2,0,1,0,2,2A2,2,0,0,0,84,20.27Z"/><circle class="cls-2" cx="76.51" cy="15.98" r="2.51"/><path class="cls-2" d="M76.51,19a3,3,0,1,1,3-3A3,3,0,0,1,76.51,19Zm0-5a2,2,0,1,0,2,2A2,2,0,0,0,76.51,14Z"/><line class="cls-1" x1="76.51" y1="43.53" x2="84.02" y2="36.02"/><path class="cls-1" d="M76.51,44.06a.55.55,0,0,1-.38-.15.54.54,0,0,1,0-.75l7.52-7.52a.53.53,0,0,1,.75.75l-7.52,7.52A.53.53,0,0,1,76.51,44.06Z"/><circle class="cls-2" cx="84.02" cy="36.02" r="2.51"/><path class="cls-2" d="M84,39.05a3,3,0,1,1,3-3A3,3,0,0,1,84,39.05Zm0-5a2,2,0,1,0,2,2A2,2,0,0,0,84,34Z"/><line class="cls-1" x1="76.51" y1="51.05" x2="68.99" y2="43.53"/><path class="cls-1" d="M76.51,51.58a.52.52,0,0,1-.38-.16l-7.51-7.51a.53.53,0,0,1,.75-.75l7.51,7.51a.53.53,0,0,1,0,.75A.5.5,0,0,1,76.51,51.58Z"/><circle class="cls-2" cx="68.99" cy="43.53" r="2.51"/><path class="cls-2" d="M69,46.57a3,3,0,1,1,3-3A3,3,0,0,1,69,46.57Zm0-5a2,2,0,1,0,2,2A2,2,0,0,0,69,41.56Z"/><line class="cls-1" x1="76.51" y1="37.27" x2="68.99" y2="29.76"/><path class="cls-1" d="M76.51,37.8a.55.55,0,0,1-.38-.15l-7.51-7.52a.53.53,0,0,1,.75-.75l7.51,7.52a.53.53,0,0,1,0,.75A.53.53,0,0,1,76.51,37.8Z"/><circle class="cls-2" cx="68.99" cy="29.76" r="2.51"/><path class="cls-2" d="M69,32.79a3,3,0,1,1,3-3A3,3,0,0,1,69,32.79Zm0-5a2,2,0,1,0,2,2A2,2,0,0,0,69,27.78Z"/><path class="cls-1" d="M10.75,66.61a.53.53,0,0,1-.53-.53V16a.53.53,0,1,1,1.06,0v50.1A.53.53,0,0,1,10.75,66.61Z"/><line class="cls-1" x1="10.75" y1="57.31" x2="18.26" y2="49.8"/><path class="cls-1" d="M10.75,57.84a.55.55,0,0,1-.38-.15.54.54,0,0,1,0-.75l7.52-7.52a.53.53,0,0,1,.75.75l-7.52,7.52A.53.53,0,0,1,10.75,57.84Z"/><circle class="cls-2" cx="18.26" cy="49.8" r="2.51"/><path class="cls-2" d="M18.26,52.83a3,3,0,1,1,3-3A3,3,0,0,1,18.26,52.83Zm0-5a2,2,0,1,0,2,2A2,2,0,0,0,18.26,47.82Z"/><line class="cls-1" x1="10.75" y1="29.76" x2="18.26" y2="22.24"/><path class="cls-1" d="M10.75,30.29a.57.57,0,0,1-.38-.16.54.54,0,0,1,0-.75l7.52-7.51a.53.53,0,0,1,.75.75l-7.52,7.51A.54.54,0,0,1,10.75,30.29Z"/><circle class="cls-2" cx="18.26" cy="22.24" r="2.51"/><path class="cls-2" d="M18.26,25.28a3,3,0,1,1,3-3A3,3,0,0,1,18.26,25.28Zm0-5a2,2,0,1,0,2,2A2,2,0,0,0,18.26,20.27Z"/><circle class="cls-2" cx="10.75" cy="15.98" r="2.51"/><path class="cls-2" d="M10.75,19a3,3,0,1,1,3-3A3,3,0,0,1,10.75,19Zm0-5a2,2,0,1,0,2,2A2,2,0,0,0,10.75,14Z"/><line class="cls-1" x1="10.75" y1="43.53" x2="18.26" y2="36.02"/><path class="cls-1" d="M10.75,44.06a.55.55,0,0,1-.38-.15.54.54,0,0,1,0-.75l7.52-7.52a.54.54,0,0,1,.75,0,.53.53,0,0,1,0,.75l-7.52,7.52A.53.53,0,0,1,10.75,44.06Z"/><circle class="cls-2" cx="18.26" cy="36.02" r="2.51"/><path class="cls-2" d="M18.26,39.05a3,3,0,1,1,3-3A3,3,0,0,1,18.26,39.05Zm0-5a2,2,0,1,0,2,2A2,2,0,0,0,18.26,34Z"/><line class="cls-1" x1="10.75" y1="51.05" x2="3.23" y2="43.53"/><path class="cls-1" d="M10.75,51.58a.52.52,0,0,1-.38-.16L2.86,43.91a.53.53,0,0,1,.75-.75l7.51,7.51a.53.53,0,0,1,0,.75A.5.5,0,0,1,10.75,51.58Z"/><circle class="cls-2" cx="3.23" cy="43.53" r="2.51"/><path class="cls-2" d="M3.23,46.57a3,3,0,1,1,3-3A3,3,0,0,1,3.23,46.57Zm0-5a2,2,0,1,0,2,2A2,2,0,0,0,3.23,41.56Z"/><line class="cls-1" x1="10.75" y1="37.27" x2="3.23" y2="29.76"/><path class="cls-1" d="M10.75,37.8a.55.55,0,0,1-.38-.15L2.86,30.13a.53.53,0,0,1,.75-.75l7.51,7.52a.53.53,0,0,1,0,.75A.53.53,0,0,1,10.75,37.8Z"/><circle class="cls-2" cx="3.23" cy="29.76" r="2.51"/><path class="cls-2" d="M3.23,32.79a3,3,0,1,1,3-3A3,3,0,0,1,3.23,32.79Zm0-5a2,2,0,1,0,2,2A2,2,0,0,0,3.23,27.78Z"/><circle class="cls-2" cx="111.93" cy="10.34" r="7.52"/><path class="cls-2" d="M111.93,18.39a8,8,0,1,1,8-8A8.06,8.06,0,0,1,111.93,18.39Zm0-15a7,7,0,1,0,7,7A7,7,0,0,0,111.93,3.36Z"/><path class="cls-2" d="M112,66.61a.53.53,0,0,1-.53-.53V16.6a.53.53,0,0,1,.53-.53.53.53,0,0,1,.53.53V66.08A.53.53,0,0,1,112,66.61Z"/><circle class="cls-3" cx="111.93" cy="10.34" r="2.51"/><path class="cls-1" d="M122.07,54.38A10,10,0,0,0,125,47a10,10,0,0,0-10.29,10.29A10,10,0,0,0,122.07,54.38Z"/><path class="cls-1" d="M115,57.67h-.29a.35.35,0,0,1-.34-.34A10.36,10.36,0,0,1,125,46.67a.34.34,0,0,1,.34.34,10.28,10.28,0,0,1-3,7.62h0A10.3,10.3,0,0,1,115,57.67Zm9.66-10.3A9.66,9.66,0,0,0,115.06,57a9.59,9.59,0,0,0,6.76-2.83h0A9.59,9.59,0,0,0,124.65,47.37Z"/><path class="cls-1" d="M102.34,54.38A10,10,0,0,1,99.41,47,10,10,0,0,1,109.7,57.31,10,10,0,0,1,102.34,54.38Z"/><path class="cls-1" d="M109.42,57.67A10.37,10.37,0,0,1,99.06,47a.34.34,0,0,1,.34-.34,10.36,10.36,0,0,1,10.65,10.65.35.35,0,0,1-.34.34Zm-9.66-10.3A9.66,9.66,0,0,0,109.35,57a9.66,9.66,0,0,0-9.59-9.59Z"/><path class="cls-1" d="M122.07,41.85A10,10,0,0,0,125,34.5a10,10,0,0,0-10.29,10.28A10,10,0,0,0,122.07,41.85Z"/><path class="cls-1" d="M115,45.14h-.29a.37.37,0,0,1-.34-.35A10.37,10.37,0,0,1,125,34.14a.35.35,0,0,1,.34.35A10.37,10.37,0,0,1,115,45.14Zm9.66-10.29a9.66,9.66,0,0,0-9.59,9.58,9.66,9.66,0,0,0,9.59-9.58Z"/><path class="cls-1" d="M102.34,41.85a10,10,0,0,1-2.93-7.35A10,10,0,0,1,109.7,44.78,10,10,0,0,1,102.34,41.85Z"/><path class="cls-1" d="M109.42,45.14a10.25,10.25,0,0,1-7.33-3h0a10.26,10.26,0,0,1-3-7.61.35.35,0,0,1,.34-.35,10.37,10.37,0,0,1,10.65,10.65.37.37,0,0,1-.34.35Zm-6.83-3.54a9.5,9.5,0,0,0,6.76,2.83,9.66,9.66,0,0,0-9.59-9.58,9.58,9.58,0,0,0,2.83,6.75Z"/><path class="cls-1" d="M122.07,29.33A10,10,0,0,0,125,22a10,10,0,0,0-10.29,10.29A10,10,0,0,0,122.07,29.33Z"/><path class="cls-1" d="M115,32.62h-.29a.35.35,0,0,1-.34-.34A10.36,10.36,0,0,1,125,21.62a.34.34,0,0,1,.34.34,10.28,10.28,0,0,1-3,7.62h0A10.3,10.3,0,0,1,115,32.62Zm9.66-10.3a9.66,9.66,0,0,0-9.59,9.59,9.59,9.59,0,0,0,6.76-2.83h0A9.59,9.59,0,0,0,124.65,22.32Z"/><path class="cls-1" d="M102.34,29.33A10,10,0,0,1,99.41,22,10,10,0,0,1,109.7,32.26,10,10,0,0,1,102.34,29.33Z"/><path class="cls-1" d="M109.42,32.62A10.37,10.37,0,0,1,99.06,22a.34.34,0,0,1,.34-.34,10.36,10.36,0,0,1,10.65,10.65.35.35,0,0,1-.34.34Zm-9.66-10.3a9.66,9.66,0,0,0,9.59,9.59,9.66,9.66,0,0,0-9.59-9.59Z"/><circle class="cls-2" cx="251.24" cy="10.34" r="7.52"/><path class="cls-2" d="M251.24,18.39a8,8,0,1,1,8-8A8.06,8.06,0,0,1,251.24,18.39Zm0-15a7,7,0,1,0,7,7A7,7,0,0,0,251.24,3.36Z"/><path class="cls-2" d="M251.34,66.61a.53.53,0,0,1-.53-.53V16.6a.53.53,0,0,1,.53-.53.53.53,0,0,1,.53.53V66.08A.53.53,0,0,1,251.34,66.61Z"/><circle class="cls-3" cx="251.24" cy="10.34" r="2.51"/><path class="cls-1" d="M261.37,54.38A10,10,0,0,0,264.3,47,10,10,0,0,0,254,57.31,10,10,0,0,0,261.37,54.38Z"/><path class="cls-1" d="M254.3,57.67H254a.35.35,0,0,1-.35-.34,10.37,10.37,0,0,1,10.65-10.65.36.36,0,0,1,.35.34,10.29,10.29,0,0,1-3,7.62h0A10.27,10.27,0,0,1,254.3,57.67ZM264,47.37A9.66,9.66,0,0,0,254.37,57a9.58,9.58,0,0,0,6.75-2.83h0A9.55,9.55,0,0,0,264,47.37Z"/><path class="cls-1" d="M241.64,54.38A10,10,0,0,1,238.71,47,10,10,0,0,1,249,57.31,10,10,0,0,1,241.64,54.38Z"/><path class="cls-1" d="M248.72,57.67a10.31,10.31,0,0,1-7.33-3h0a10.28,10.28,0,0,1-3-7.62.36.36,0,0,1,.34-.34,10.36,10.36,0,0,1,10.65,10.65.34.34,0,0,1-.34.34Zm-9.66-10.3a9.59,9.59,0,0,0,2.83,6.76h0A9.61,9.61,0,0,0,248.65,57a9.66,9.66,0,0,0-9.59-9.59Z"/><path class="cls-1" d="M261.37,41.85a10,10,0,0,0,2.93-7.35A10,10,0,0,0,254,44.78,10,10,0,0,0,261.37,41.85Z"/><path class="cls-1" d="M254.3,45.14H254a.37.37,0,0,1-.35-.35,10.39,10.39,0,0,1,10.65-10.65.37.37,0,0,1,.35.35A10.39,10.39,0,0,1,254.3,45.14ZM264,34.85a9.66,9.66,0,0,0-9.58,9.58A9.66,9.66,0,0,0,264,34.85Z"/><path class="cls-1" d="M241.64,41.85a10,10,0,0,1-2.93-7.35A10,10,0,0,1,249,44.78,10,10,0,0,1,241.64,41.85Z"/><path class="cls-1" d="M248.72,45.14a10.37,10.37,0,0,1-10.36-10.65.37.37,0,0,1,.34-.35,10.37,10.37,0,0,1,10.65,10.65.35.35,0,0,1-.34.35Zm-9.66-10.29a9.66,9.66,0,0,0,9.59,9.58,9.66,9.66,0,0,0-9.59-9.58Z"/><path class="cls-1" d="M261.37,29.33A10,10,0,0,0,264.3,22,10,10,0,0,0,254,32.26,10,10,0,0,0,261.37,29.33Z"/><path class="cls-1" d="M254.3,32.62H254a.35.35,0,0,1-.35-.34,10.37,10.37,0,0,1,10.65-10.65.36.36,0,0,1,.35.34,10.29,10.29,0,0,1-3,7.62h0A10.27,10.27,0,0,1,254.3,32.62ZM264,22.32a9.66,9.66,0,0,0-9.58,9.59,9.58,9.58,0,0,0,6.75-2.83h0A9.55,9.55,0,0,0,264,22.32Z"/><path class="cls-1" d="M241.64,29.33A10,10,0,0,1,238.71,22,10,10,0,0,1,249,32.26,10,10,0,0,1,241.64,29.33Z"/><path class="cls-1" d="M248.72,32.62a10.31,10.31,0,0,1-7.33-3h0a10.28,10.28,0,0,1-3-7.62.36.36,0,0,1,.34-.34,10.36,10.36,0,0,1,10.65,10.65.34.34,0,0,1-.34.34Zm-9.66-10.3a9.59,9.59,0,0,0,2.83,6.76h0a9.61,9.61,0,0,0,6.76,2.83,9.66,9.66,0,0,0-9.59-9.59Z"/><path class="cls-2" d="M182.35,66.61a.53.53,0,0,1-.53-.53V12.22a.53.53,0,0,1,.53-.53.53.53,0,0,1,.53.53V66.08A.53.53,0,0,1,182.35,66.61Z"/><path class="cls-1" d="M194.52,44.52a15,15,0,0,0-10.29,10.29,15.06,15.06,0,0,0,10.29-10.29Z"/><path class="cls-1" d="M184.23,55.16a.36.36,0,0,1-.25-.1.35.35,0,0,1-.09-.35,15.33,15.33,0,0,1,10.53-10.53.35.35,0,0,1,.35.09.36.36,0,0,1,.09.34,15.4,15.4,0,0,1-10.54,10.54ZM194,45.05a14.68,14.68,0,0,0-9.22,9.22A14.68,14.68,0,0,0,194,45.05Z"/><path class="cls-1" d="M194.52,32a15,15,0,0,0-10.29,10.29A15.06,15.06,0,0,0,194.52,32Z"/><path class="cls-1" d="M184.23,42.64a.33.33,0,0,1-.25-.11.35.35,0,0,1-.09-.35,15.37,15.37,0,0,1,10.53-10.53.38.38,0,0,1,.35.09.37.37,0,0,1,.09.35A15.46,15.46,0,0,1,191,38.71a15.24,15.24,0,0,1-6.63,3.91ZM194,32.53a14.69,14.69,0,0,0-9.22,9.21A14.69,14.69,0,0,0,194,32.53Z"/><path class="cls-1" d="M194.52,19.47a15,15,0,0,0-10.29,10.29,15.06,15.06,0,0,0,10.29-10.29Z"/><path class="cls-1" d="M184.23,30.11A.36.36,0,0,1,184,30a.35.35,0,0,1-.09-.35,15.33,15.33,0,0,1,10.53-10.53.33.33,0,0,1,.35.09.36.36,0,0,1,.09.34A15.4,15.4,0,0,1,184.32,30.1ZM194,20a14.68,14.68,0,0,0-9.22,9.22A14.68,14.68,0,0,0,194,20Z"/><path class="cls-1" d="M170.18,44.52a15,15,0,0,1,10.29,10.29,15,15,0,0,1-10.29-10.29Z"/><path class="cls-1" d="M180.47,55.16h-.1a15.55,15.55,0,0,1-6.63-3.91,15.32,15.32,0,0,1-3.9-6.63.35.35,0,0,1,.43-.43,15.32,15.32,0,0,1,6.63,3.9,15.49,15.49,0,0,1,3.91,6.63.38.38,0,0,1-.09.35A.39.39,0,0,1,180.47,55.16Zm-9.75-10.11a14.63,14.63,0,0,0,9.21,9.22,14.69,14.69,0,0,0-9.21-9.22Z"/><path class="cls-1" d="M170.18,32a15.06,15.06,0,0,1,10.29,10.29A15,15,0,0,1,170.18,32Z"/><path class="cls-1" d="M180.47,42.64l-.1,0a15.37,15.37,0,0,1-10.53-10.53.35.35,0,0,1,.09-.35.36.36,0,0,1,.34-.09,15.41,15.41,0,0,1,10.54,10.53.37.37,0,0,1-.09.35A.36.36,0,0,1,180.47,42.64Zm-9.75-10.11a14.65,14.65,0,0,0,9.21,9.21,14.71,14.71,0,0,0-9.21-9.21Z"/><path class="cls-1" d="M170.18,19.47a15,15,0,0,1,10.29,10.29,15,15,0,0,1-10.29-10.29Z"/><path class="cls-1" d="M180.47,30.11h-.1a15.55,15.55,0,0,1-6.63-3.91,15.32,15.32,0,0,1-3.9-6.63.33.33,0,0,1,.09-.34.32.32,0,0,1,.34-.09A15.32,15.32,0,0,1,176.9,23a15.49,15.49,0,0,1,3.91,6.63.38.38,0,0,1-.09.35A.39.39,0,0,1,180.47,30.11ZM170.72,20a14.63,14.63,0,0,0,9.21,9.22A14.69,14.69,0,0,0,170.72,20Z"/><path class="cls-2" d="M188.41,9.29a6.07,6.07,0,0,1-12.13,0V1l3,1.51,3-1.51,3,1.51,3-1.51Z"/><path class="cls-2" d="M182.35,15.88a6.6,6.6,0,0,1-6.6-6.59V1A.53.53,0,0,1,176,.5a.54.54,0,0,1,.52,0l2.79,1.4,2.8-1.4a.55.55,0,0,1,.47,0l2.8,1.4,2.8-1.4a.52.52,0,0,1,.51,0,.5.5,0,0,1,.25.45V9.29A6.6,6.6,0,0,1,182.35,15.88ZM176.81,1.81V9.29a5.54,5.54,0,0,0,11.07,0V1.81l-2.26,1.13a.57.57,0,0,1-.48,0l-2.79-1.4-2.8,1.4a.55.55,0,0,1-.47,0Z"/><path class="cls-2" d="M42.69,66.61a.53.53,0,0,1-.53-.53V12.22a.53.53,0,1,1,1.06,0V66.08A.53.53,0,0,1,42.69,66.61Z"/><path class="cls-1" d="M54.86,44.52A15,15,0,0,0,44.57,54.81,15.06,15.06,0,0,0,54.86,44.52Z"/><path class="cls-1" d="M44.57,55.16a.37.37,0,0,1-.25-.1.35.35,0,0,1-.09-.35A15.33,15.33,0,0,1,54.76,44.18a.35.35,0,0,1,.35.09.36.36,0,0,1,.09.34A15.4,15.4,0,0,1,44.66,55.15Zm9.75-10.11a14.63,14.63,0,0,0-9.21,9.22,14.69,14.69,0,0,0,9.21-9.22Z"/><path class="cls-1" d="M54.86,32A15,15,0,0,0,44.57,42.28,15.06,15.06,0,0,0,54.86,32Z"/><path class="cls-1" d="M44.57,42.64a.34.34,0,0,1-.25-.11.35.35,0,0,1-.09-.35,15.34,15.34,0,0,1,3.9-6.62,15.55,15.55,0,0,1,6.63-3.91.36.36,0,0,1,.44.44,15.46,15.46,0,0,1-3.91,6.62,15.24,15.24,0,0,1-6.63,3.91Zm9.75-10.11a14.65,14.65,0,0,0-9.21,9.21,14.71,14.71,0,0,0,9.21-9.21Z"/><path class="cls-1" d="M54.86,19.47A15,15,0,0,0,44.57,29.76,15.06,15.06,0,0,0,54.86,19.47Z"/><path class="cls-1" d="M44.57,30.11a.37.37,0,0,1-.25-.1.35.35,0,0,1-.09-.35A15.33,15.33,0,0,1,54.76,19.13a.33.33,0,0,1,.35.09.36.36,0,0,1,.09.34A15.4,15.4,0,0,1,44.66,30.1ZM54.32,20a14.63,14.63,0,0,0-9.21,9.22A14.69,14.69,0,0,0,54.32,20Z"/><path class="cls-1" d="M30.52,44.52A15,15,0,0,1,40.81,54.81,15.06,15.06,0,0,1,30.52,44.52Z"/><path class="cls-1" d="M40.81,55.16h-.1a15.46,15.46,0,0,1-6.62-3.91,15.24,15.24,0,0,1-3.91-6.63.33.33,0,0,1,.09-.34.35.35,0,0,1,.35-.09A15.37,15.37,0,0,1,41.15,54.71a.35.35,0,0,1-.09.35A.39.39,0,0,1,40.81,55.16ZM31.06,45.05a14.69,14.69,0,0,0,9.21,9.22,14.69,14.69,0,0,0-9.21-9.22Z"/><path class="cls-1" d="M30.52,32A15.06,15.06,0,0,1,40.81,42.28,15.06,15.06,0,0,1,30.52,32Z"/><path class="cls-1" d="M40.81,42.64l-.1,0A15.42,15.42,0,0,1,30.18,32.09a.35.35,0,0,1,.09-.35.37.37,0,0,1,.35-.09A15.42,15.42,0,0,1,41.15,42.18a.35.35,0,0,1-.09.35A.36.36,0,0,1,40.81,42.64ZM31.06,32.53a14.71,14.71,0,0,0,9.21,9.21,14.71,14.71,0,0,0-9.21-9.21Z"/><path class="cls-1" d="M30.52,19.47A15,15,0,0,1,40.81,29.76,15.06,15.06,0,0,1,30.52,19.47Z"/><path class="cls-1" d="M40.81,30.11h-.1a15.46,15.46,0,0,1-6.62-3.91,15.24,15.24,0,0,1-3.91-6.63.33.33,0,0,1,.09-.34.33.33,0,0,1,.35-.09A15.37,15.37,0,0,1,41.15,29.66a.35.35,0,0,1-.09.35A.39.39,0,0,1,40.81,30.11ZM31.06,20a14.69,14.69,0,0,0,9.21,9.22A14.69,14.69,0,0,0,31.06,20Z"/><path class="cls-2" d="M48.75,9.29a6.07,6.07,0,0,1-12.13,0V1l3,1.51,3-1.51,3,1.51,3-1.51Z"/><path class="cls-2" d="M42.69,15.88a6.6,6.6,0,0,1-6.6-6.59V1A.51.51,0,0,1,36.35.5a.52.52,0,0,1,.51,0l2.8,1.4L42.45.47a.57.57,0,0,1,.48,0l2.79,1.4,2.8-1.4A.52.52,0,0,1,49,.5a.5.5,0,0,1,.25.45V9.29A6.6,6.6,0,0,1,42.69,15.88ZM37.15,1.81V9.29a5.54,5.54,0,0,0,11.07,0V1.81L46,2.94a.57.57,0,0,1-.48,0l-2.79-1.4-2.8,1.4a.55.55,0,0,1-.47,0Z"/></svg>