<svg id="图层_1" data-name="图层 1" xmlns="http://www.w3.org/2000/svg" viewBox="0 0 20 20"><defs><style>.cls-1{fill:#ff8b00;}.cls-2{fill:#0b6d00;}</style></defs><title>fleur</title><path class="cls-1" d="M10,18.75a.23.23,0,0,1-.23-.23V6.4a.23.23,0,1,1,.46,0V18.52A.23.23,0,0,1,10,18.75Z"/><path class="cls-2" d="M15.31,8.92a6.6,6.6,0,0,0-4.49,4.49,6.55,6.55,0,0,0,4.49-4.49Z"/><path class="cls-2" d="M10.82,13.57a.16.16,0,0,1-.11-.05.17.17,0,0,1,0-.15,6.61,6.61,0,0,1,1.71-2.89,6.81,6.81,0,0,1,2.89-1.71.15.15,0,0,1,.19.19,6.71,6.71,0,0,1-4.6,4.6Zm4.25-4.41a6.36,6.36,0,0,0-2.48,1.54,6.53,6.53,0,0,0-1.54,2.48,6.52,6.52,0,0,0,2.49-1.54A6.46,6.46,0,0,0,15.07,9.16Z"/><path class="cls-2" d="M4.69,8.92a6.5,6.5,0,0,1,2.82,1.67,6.5,6.5,0,0,1,1.67,2.82A6.55,6.55,0,0,1,4.69,8.92Z"/><path class="cls-2" d="M9.18,13.57h0A6.71,6.71,0,0,1,4.54,9a.15.15,0,0,1,.19-.19,6.81,6.81,0,0,1,2.89,1.71,6.61,6.61,0,0,1,1.71,2.89.17.17,0,0,1,0,.15A.16.16,0,0,1,9.18,13.57ZM4.93,9.16a6.46,6.46,0,0,0,1.53,2.48A6.52,6.52,0,0,0,9,13.18,6.53,6.53,0,0,0,7.41,10.7,6.36,6.36,0,0,0,4.93,9.16Z"/><path class="cls-1" d="M12.65,5.12a2.65,2.65,0,1,1-5.3,0V1.48l1.33.66L10,1.48l1.32.66,1.33-.66Z"/><path class="cls-1" d="M10,8A2.88,2.88,0,0,1,7.12,5.12V1.48a.24.24,0,0,1,.11-.2.27.27,0,0,1,.23,0l1.22.61L9.9,1.27a.23.23,0,0,1,.2,0l1.22.61,1.22-.61a.27.27,0,0,1,.23,0,.24.24,0,0,1,.11.2V5.12A2.88,2.88,0,0,1,10,8ZM7.59,1.86V5.12a2.41,2.41,0,1,0,4.82,0V1.86l-1,.49a.26.26,0,0,1-.21,0L10,1.74l-1.22.61a.26.26,0,0,1-.21,0Z"/></svg>