<svg id="图层_1" data-name="图层 1" xmlns="http://www.w3.org/2000/svg" viewBox="0 0 20 20"><defs><style>.cls-1{fill:#841600;}.cls-2{fill:#ff8b00;}.cls-3{fill:#85c5ff;}</style></defs><title>mf_画板 1</title><path class="cls-1" d="M5.68,14a.15.15,0,0,0-.15-.15A2.74,2.74,0,0,1,2.8,11.07h0a.14.14,0,0,0-.15-.14.15.15,0,0,0-.15.15s0,0,0,0a3,3,0,0,0,3,3A.14.14,0,0,0,5.68,14Z"/><path class="cls-2" d="M8.43,16.81h0a2.89,2.89,0,1,1,0-5.78h7.23a2.89,2.89,0,0,1,0,5.78Z"/><rect class="cls-1" x="8.42" y="11.02" width="1.45" height="5.79"/><rect class="cls-1" x="11.31" y="11.02" width="1.45" height="5.79"/><rect class="cls-1" x="14.21" y="11.02" width="1.45" height="5.79"/><circle class="cls-1" cx="2.64" cy="11.03" r="0.63"/><circle class="cls-3" cx="8.6" cy="5.15" r="3.44"/><circle class="cls-3" cx="10.76" cy="9.02" r="1.29"/><polygon class="cls-3" points="12.04 5.15 12.04 9.02 10.11 10.14 6.68 8 12.04 5.15"/><circle class="cls-3" cx="15.99" cy="6.02" r="2.86"/><circle class="cls-3" cx="14.2" cy="9.23" r="1.07"/><polygon class="cls-3" points="13.13 6.02 13.13 9.23 14.73 10.17 17.59 8.39 13.13 6.02"/></svg>