<svg id="图层_1" data-name="图层 1" xmlns="http://www.w3.org/2000/svg" viewBox="0 0 20 20"><defs><style>.cls-1{fill:#841600;}.cls-2{fill:#ff8b00;}.cls-3{fill:#85c5ff;}</style></defs><title>mf</title><path class="cls-1" d="M15.34,14.07a3,3,0,0,0,3.05-3,.15.15,0,0,0-.15-.15.15.15,0,0,0-.16.15,2.74,2.74,0,0,1-2.74,2.74.15.15,0,0,0-.15.15A.15.15,0,0,0,15.34,14.07Z"/><path class="cls-2" d="M5.22,16.81a2.89,2.89,0,1,1,0-5.78h7.23a2.89,2.89,0,0,1,0,5.78Z"/><rect class="cls-1" x="11" y="11.03" width="1.45" height="5.79" transform="translate(23.45 27.84) rotate(-180)"/><rect class="cls-1" x="8.11" y="11.03" width="1.45" height="5.79" transform="translate(17.67 27.84) rotate(-180)"/><rect class="cls-1" x="5.22" y="11.03" width="1.45" height="5.79" transform="translate(11.88 27.84) rotate(-180)"/><circle class="cls-1" cx="18.24" cy="11.03" r="0.63"/><circle class="cls-3" cx="12.27" cy="5.15" r="3.44"/><circle class="cls-3" cx="10.12" cy="9.02" r="1.29"/><polygon class="cls-3" points="14.19 8 10.77 10.14 8.83 9.02 8.83 5.15 14.19 8"/><circle class="cls-3" cx="4.89" cy="6.02" r="2.86"/><circle class="cls-3" cx="6.68" cy="9.23" r="1.07"/><polygon class="cls-3" points="3.29 8.39 6.14 10.17 7.75 9.23 7.75 6.02 3.29 8.39"/></svg>